<?xml version="1.0" encoding="utf-8"?>
<!-- Generator: Adobe Illustrator 21.1.0, SVG Export Plug-In . SVG Version: 6.00 Build 0)  -->
<svg version="1.1" xmlns="http://www.w3.org/2000/svg" xmlns:xlink="http://www.w3.org/1999/xlink" x="0px" y="0px"
	 viewBox="0 0 360 360" style="enable-background:new 0 0 360 360;" xml:space="preserve">
<style type="text/css">
	.st0{display:none;}
	.st1{fill:#083A9B;}
	.st2{fill:#09147A;}
	.st3{display:inline;fill:#083A9B;}
	.st4{display:inline;fill:#FFE145;}
	.st5{display:inline;fill:#FFFFFF;stroke:#231F20;stroke-width:1.1387;stroke-miterlimit:10;}
	.st6{display:inline;fill:#540000;}
	.st7{display:inline;}
	.st8{display:inline;fill:#081296;}
	.st9{display:inline;fill:#FFDC4A;}
	.st10{display:inline;fill:#E397FF;}
	.st11{display:inline;fill:#FFE576;}
	.st12{display:inline;fill:#58006D;}
	.st13{display:inline;fill:#00BA96;}
	.st14{display:inline;fill:#FFB83B;}
	.st15{display:inline;fill:#2F7F33;}
	.st16{display:inline;fill:#FFFAD2;}
	.st17{display:inline;fill:#3EAD98;}
	.st18{display:inline;fill:#FF8AB7;}
	.st19{display:inline;fill:#DD0505;}
	.st20{display:inline;fill:#FCD017;}
	.st21{display:inline;fill:#562E05;}
	.st22{display:inline;fill:#E55C10;}
	.st23{display:inline;fill:#FFF080;}
	.st24{display:inline;fill:#FFBBBB;}
	.st25{display:inline;fill:#11563A;}
	.st26{display:inline;fill:#C19D4D;}
	.st27{display:inline;fill:#3E4716;}
	.st28{display:inline;fill:#845625;}
	.st29{display:inline;fill:#F4CD7F;}
	.st30{display:inline;fill:#FCBD30;}
	.st31{fill:#FFE145;}
	.st32{fill:#FCCE08;}
	.st33{fill:#FFFFFF;stroke:#231F20;stroke-miterlimit:10;}
	.st34{fill:#FFBC00;stroke:#FFBC00;stroke-width:1.0421;stroke-miterlimit:10;}
	.st35{fill:none;stroke:#FCCE08;stroke-width:6;stroke-linecap:round;stroke-miterlimit:10;}
	.st36{fill:none;stroke:#FFBC00;stroke-width:6;stroke-linecap:round;stroke-miterlimit:10;}
	.st37{fill:#FFBC00;}
	.st38{fill:#FFBC00;stroke:#FFBC00;stroke-miterlimit:10;}
	.st39{fill:none;stroke:#FFBC00;stroke-width:11.0355;stroke-linecap:round;stroke-miterlimit:10;}
</style>
<g id="logo_pic" class="st0">
</g>
<g id="wordmark">
</g>
<g id="colors" class="st0">
</g>
<g id="colors2" class="st0">
</g>
<g id="icons_on_app" class="st0">
	<path class="st3" d="M330.6,163.9h-3.5L288.6,94c-1.7-3-5.9-5.5-9.3-5.5H162.1c-3.5,0-7.7,2.5-9.3,5.5l-38.6,69.9h-3.5
		c-6.9,0-12.6,5.7-12.6,12.6v62.8c0,6.9,5.7,12.6,12.6,12.6h12.6v18.8c0,10.4,8.5,18.8,18.8,18.8h6.3c10.4,0,18.8-8.5,18.8-18.8
		v-18.8h106.8v18.8c0,10.4,8.5,18.8,18.8,18.8h6.3c10.4,0,18.8-8.5,18.8-18.8v-18.8h12.6c6.9,0,12.6-5.7,12.6-12.6v-62.8
		C343.2,169.6,337.5,163.9,330.6,163.9z M132.7,214.2c-8.7,0-15.7-7-15.7-15.7c0-8.7,7-15.7,15.7-15.7c8.7,0,15.7,7,15.7,15.7
		C148.4,207.2,141.4,214.2,132.7,214.2z M145.3,163.9l25.5-50.9c1.5-3.1,5.6-5.6,9.1-5.6h81.7c3.5,0,7.5,2.5,9.1,5.6l25.5,50.9
		H145.3z M308.6,214.2c-8.7,0-15.7-7-15.7-15.7c0-8.7,7-15.7,15.7-15.7c8.7,0,15.7,7,15.7,15.7C324.4,207.2,317.3,214.2,308.6,214.2
		z"/>
</g>
<g id="trace_pic" class="st0">
</g>
<g id="color_blocks">
</g>
<g id="icons">
	<g>
		<path class="st31" d="M245.8,65.8c0.1,0.8,15.5-2.4,15.5-2.4s-0.5-14.3,12.2-21.4c0,0,15.8-7.8,25.2-0.6l10.7-12.8
			c0,0-17.6-17.3-44.5-3.7C264.9,24.9,242.6,34.9,245.8,65.8z"/>
		<path class="st31" d="M18,274.2c0.3,0.7,13.9-7.3,13.9-7.3s-5.1-13.3,4.6-24.2c0,0,12.4-12.5,23.7-8.8l6-15.6
			c0,0-22.2-10.7-43.3,10.9C22.8,229.3,4.9,246.1,18,274.2z"/>
		<path class="st31" d="M47.6,250.6l1.3-1.2c5.3-5,13.2-5.9,19.5-2.4c25.9,14.4,97.1,43.9,166.9-15.4c0,0,76.8-57.5,36-157.2
			c-2.7-6.5-0.9-14,4.3-18.7v0c7.1-6.3,18-5.5,24,1.8c28.3,34.5,85.2,149.7-7.3,237.3c-0.4,0.4-0.8,0.9-1.3,1.2
			c-5.8,5-46.1,37.9-96,40.4c-0.4,0-0.7,0-1.1,0.1c-6.5,0.8-82.1,8.8-147.3-62.6C40.5,267.2,41,256.8,47.6,250.6z"/>
		<path class="st39" d="M294.8,78.9c34.9,67.7,23.1,149-32.8,194.8c-55.6,45.5-136.9,41.3-196.3-5.4"/>
	</g>
</g>
</svg>
